<?xml version="1.0" encoding="utf-8"?>
<!-- Generator: Adobe Illustrator 19.0.0, SVG Export Plug-In . SVG Version: 6.00 Build 0)  -->
<svg version="1.1" id="Layer_1" xmlns="http://www.w3.org/2000/svg" xmlns:xlink="http://www.w3.org/1999/xlink" width="66" height="60" x="0px" y="0px"
	 viewBox="1022.8 171 61.2 57.7" style="enable-background:new 1022.8 171 61.2 57.7;" xml:space="preserve">
<style type="text/css">
	.st0{fill:#FFFFFF;}
	.st1{fill:#80B942;}
</style>
<path id="XMLID_16_" class="st0" d="M1064.3,179.8l0.6-1.8c0.9-2.9-0.8-6-3.7-6.8c-1.4-0.4-2.9-0.3-4.2,0.4
	c-1.3,0.7-2.2,1.9-2.7,3.3l-0.5,1.5c-7.6-0.1-14.9,4.5-17,11.5l-4.7,15.5l-4.7,2.4l0,0c-0.7,0-1.4,0.2-2,0.6c-1.1,0.6-2,1.6-2.3,2.9
	l-0.1,0.3c-0.8,2.6,0.7,5.3,3.3,6l12.1,3.6c-0.6,1.9-0.3,3.9,0.6,5.6c0.9,1.8,2.5,3,4.4,3.6c0.7,0.2,1.4,0.3,2.2,0.3
	c1.2,0,2.4-0.3,3.5-0.9c1.7-0.9,3-2.5,3.6-4.4l11.3,3.4c0.5,0.1,0.9,0.2,1.4,0.2c2.1,0,4-1.4,4.6-3.5l0.1-0.3
	c0.4-1.2,0.2-2.6-0.4-3.7l-2.6-4.7l4.3-16.7C1073.3,191.5,1070.2,184,1064.3,179.8z M1056.3,175.3c0.3-0.9,0.9-1.6,1.7-2.1
	c0.8-0.4,1.8-0.5,2.7-0.3c1.8,0.6,2.9,2.5,2.3,4.4l-0.4,1.3c-1.2-0.7-2.4-1.2-3.7-1.6c-1-0.3-2-0.5-3-0.6L1056.3,175.3z
	 M1048.1,225.9c-1.3,0.7-2.8,0.8-4.2,0.4s-2.5-1.4-3.2-2.6c-0.7-1.3-0.8-2.7-0.4-4.1l10.4,3.1
	C1050.3,224.1,1049.4,225.2,1048.1,225.9z M1068.2,222.6l-0.1,0.3c-0.2,0.7-0.7,1.3-1.4,1.7c-0.7,0.4-1.4,0.4-2.2,0.2l-37.6-11.3
	c-1.5-0.5-2.4-2-1.9-3.5l0.1-0.3c0.2-0.7,0.7-1.3,1.4-1.7c0.4-0.2,0.9-0.3,1.3-0.3c0.3,0,0.6,0,0.8,0.1l37.6,11.3
	c0.7,0.2,1.3,0.7,1.7,1.4C1068.3,221.1,1068.4,221.9,1068.2,222.6z M1069.4,197.6l-4.5,17.6l1,1.7l-35.2-10.6l3.2-1.6l5-16.3
	c2.2-7.5,11.4-11.9,19.5-9.4C1066.5,181.4,1071.7,190.1,1069.4,197.6z"/>
<circle id="XMLID_3_" class="st0" cx="1075" cy="188" r="9"/>
<g id="XMLID_5_">
	<circle id="XMLID_1_" class="st1" cx="1075" cy="188" r="7"/>
</g>
</svg>
