<?xml version="1.0" encoding="utf-8"?>
<!-- Generator: Adobe Illustrator 19.0.0, SVG Export Plug-In . SVG Version: 6.00 Build 0)  -->
<svg version="1.1" id="Layer_1" xmlns="http://www.w3.org/2000/svg" xmlns:xlink="http://www.w3.org/1999/xlink" x="0px" y="0px"
	 width="66px" height="60px" viewBox="0 0 66 60" style="enable-background:new 0 0 66 60;" xml:space="preserve">
<style type="text/css">
	.st0{fill:#FFFFFF;}
	.st1{fill:#146FA7;stroke:#80B942;stroke-width:2;stroke-miterlimit:10;}
	.st2{fill:none;stroke:#FFFFFF;stroke-width:2;stroke-miterlimit:10;}
	.st3{fill:#80B942;}
	.st4{fill:none;stroke:#80B942;stroke-width:2;stroke-miterlimit:10;}
</style>
<g id="XMLID_923_">
	<path id="XMLID_26_" class="st0" d="M62,11c1.1,0,2,0.9,2,2v37c0,1.1-0.9,2-2,2H4c-1.1,0-2-0.9-2-2V13c0-1.1,0.9-2,2-2H62 M62,9H4
		c-2.2,0-4,1.8-4,4v37c0,2.2,1.8,4,4,4h58c2.2,0,4-1.8,4-4V13C66,10.8,64.2,9,62,9L62,9z"/>
</g>
<path id="XMLID_698_" class="st1" d="M35.8,45H18.5c-1.4,0-2.5-1.3-2.5-2.9V3.9C16,2.3,17.1,1,18.5,1h26.9C46.9,1,48,2.3,48,3.9V21"
	/>
<line id="XMLID_919_" class="st2" x1="21" y1="59" x2="46" y2="59"/>
<g id="XMLID_952_">
	<g id="XMLID_31_">
		<path id="XMLID_32_" class="st3" d="M32,10v10H22V10H32 M34,8H20v14h14V8L34,8z"/>
	</g>
</g>
<line id="XMLID_951_" class="st4" x1="21" y1="27" x2="34" y2="27"/>
<line id="XMLID_945_" class="st4" x1="21" y1="31" x2="34" y2="31"/>
<line id="XMLID_942_" class="st4" x1="21" y1="36" x2="34" y2="36"/>
<line id="XMLID_941_" class="st4" x1="38" y1="10" x2="44" y2="10"/>
<line id="XMLID_940_" class="st4" x1="38" y1="15" x2="44" y2="15"/>
<line id="XMLID_924_" class="st4" x1="38" y1="20" x2="44" y2="20"/>
<line id="XMLID_943_" class="st2" x1="51.3" y1="40.8" x2="58" y2="47.5"/>
<circle id="XMLID_707_" class="st2" cx="46.5" cy="34.9" r="8.5"/>
</svg>
