<?xml version="1.0" encoding="utf-8"?>
<!-- Generator: Adobe Illustrator 19.0.0, SVG Export Plug-In . SVG Version: 6.00 Build 0)  -->
<svg version="1.1" id="Layer_1" xmlns="http://www.w3.org/2000/svg" xmlns:xlink="http://www.w3.org/1999/xlink" x="0px" y="0px"
	 viewBox="6167.4 225.6 75 57" style="enable-background:new 6167.4 225.6 75 57;" width="76" height="59" xml:space="preserve">
<style type="text/css">
	.st0{fill:#FFFFFF;}
	.st1{fill:#80B942;}
</style>
<rect id="XMLID_12_" x="6188.4" y="274.6" class="st0" width="25" height="2"/>
<polygon id="XMLID_13_" class="st1" points="6201.4,257.1 6193.4,248.2 6186.1,256.6 6174.6,256.6 6174.6,254.6 6185.2,254.6 
	6193.4,245.1 6201.5,254.2 6217.7,238.9 6219.1,240.4 "/>
<path id="XMLID_14_" class="st0" d="M6220.2,268.6h-48.8c-1.1,0-2-0.9-2-2v-37c0-1.1,0.9-2,2-2h58c1.1,0,2,0.9,2,2v13.2h2v-13.2
	c0-2.2-1.8-4-4-4h-58c-2.2,0-4,1.8-4,4v37c0,2.2,1.8,4,4,4h48.8V268.6z"/>
<path id="XMLID_7_" class="st0" d="M6238.4,248.7c1.1,0,2,0.9,2,2v27.9c0,1.1-0.9,2-2,2h-12c-1.1,0-2-0.9-2-2v-27.9c0-1.1,0.9-2,2-2
	H6238.4 M6238.4,246.7h-12c-2.2,0-4,1.8-4,4v27.9c0,2.2,1.8,4,4,4h12c2.2,0,4-1.8,4-4v-27.9C6242.4,248.5,6240.6,246.7,6238.4,246.7
	L6238.4,246.7z"/>
<polygon id="XMLID_4_" class="st1" points="6232.7,268.6 6229.5,265.8 6226.7,268.6 6225.3,267.2 6229.4,263 6232.6,265.8 
	6237.8,260.3 6239.3,261.6 "/>
<path id="XMLID_368_" class="st0" d="M6233.7,278.6h-1.6c-0.4,0-0.7-0.3-0.7-0.7v-0.6c0-0.4,0.3-0.7,0.7-0.7h1.6
	c0.4,0,0.7,0.3,0.7,0.7v0.6C6234.4,278.3,6234.1,278.6,6233.7,278.6z"/>
</svg>
